<?xml version="1.0" encoding="iso-8859-1"?>
<!-- Generator: Adobe Illustrator 19.0.0, SVG Export Plug-In . SVG Version: 6.00 Build 0)  -->
<svg version="1.1" id="Layer_1" xmlns="http://www.w3.org/2000/svg" xmlns:xlink="http://www.w3.org/1999/xlink" x="0px" y="0px"
	 viewBox="0 0 512 512" style="enable-background:new 0 0 512 512;" xml:space="preserve">
<g>
	<g>
		<path d="M223.149,373.274h-5.068c-6.251,0-11.32,5.069-11.32,11.32c0,6.251,5.069,11.32,11.32,11.32h5.068
			c6.251,0,11.32-5.069,11.32-11.32C234.47,378.343,229.401,373.274,223.149,373.274z"/>
	</g>
</g>
<g>
	<g>
		<path d="M293.921,373.274h-5.068c-6.251,0-11.32,5.069-11.32,11.32c0,6.251,5.069,11.32,11.32,11.32h5.068
			c6.252,0,11.32-5.069,11.32-11.32C305.241,378.343,300.172,373.274,293.921,373.274z"/>
	</g>
</g>
<g>
	<g>
		<path d="M484.659,74.663c0-1.405-0.247-2.811-0.773-4.147c-1.166-2.965-3.527-5.301-6.506-6.435l-57.419-21.86
			c2.024-4.276,3.252-6.926,3.48-7.419c1.424-3.081,1.391-6.639-0.092-9.694c-1.483-3.054-4.258-5.282-7.56-6.069L337.208,0.312
			c-5.735-1.371-11.568,1.902-13.391,7.516l-2.875,8.854H191.063l-2.875-8.854c-1.823-5.613-7.648-8.889-13.391-7.516l-78.584,18.73
			c-3.302,0.787-6.077,3.015-7.56,6.069c-1.483,3.053-1.516,6.612-0.092,9.694c0.228,0.492,1.456,3.143,3.48,7.419l-57.419,21.86
			c-2.978,1.133-5.34,3.47-6.506,6.435c-0.526,1.335-0.773,2.741-0.773,4.146c-0.006,0-0.009,0-0.015,0V434.23
			c0,6.251,5.068,11.32,11.32,11.32h56.225v55.129c0,6.251,5.068,11.32,11.32,11.32c83.409,0,133.543-20.617,149.806-28.586
			C272.263,491.383,322.397,512,405.806,512c6.251,0,11.32-5.069,11.32-11.32V445.55h56.225c6.251,0,11.32-5.069,11.32-11.32V74.662
			C484.667,74.662,484.664,74.662,484.659,74.663z M342.122,24.757l54.843,13.072c-9.784,20.423-30.165,61.877-49.556,94.471
			c-17.253,28.999-45.046,59.776-66.778,81.79L342.122,24.757z M169.88,24.757l61.491,189.332
			c-21.732-22.014-49.524-52.79-66.778-81.79c-19.382-32.578-39.77-74.043-49.555-94.471L169.88,24.757z M94.874,422.908H49.97
			V123.334l44.905,91.308V422.908z M244.682,463.731h-0.001c-14.441,6.839-57.06,23.809-127.165,25.494v-93.31h63.942
			c6.251,0,11.32-5.069,11.32-11.32c0-6.251-5.069-11.32-11.32-11.32h-63.942V212.009c0-1.732-0.398-3.441-1.161-4.996L54.293,80.82
			l47.619-18.131c10.975,22.376,27.248,54.335,43.225,81.188c29.222,49.119,84.385,100.723,99.545,114.458V463.731z M198.415,39.322
			h115.171L256.001,216.63L198.415,39.322z M395.649,207.012c-0.764,1.554-1.161,3.264-1.161,4.996v161.265h-63.942
			c-6.251,0-11.32,5.069-11.32,11.32c0,6.251,5.069,11.32,11.32,11.32h63.942v93.307c-69.705-1.696-112.621-18.695-127.165-25.524
			V258.336c15.159-13.736,70.32-65.34,99.545-114.458c15.975-26.853,32.248-58.812,43.225-81.188l47.619,18.131L395.649,207.012z
			 M462.032,422.908h-44.905V214.642l44.905-91.308V422.908z"/>
	</g>
</g>
<g>
</g>
<g>
</g>
<g>
</g>
<g>
</g>
<g>
</g>
<g>
</g>
<g>
</g>
<g>
</g>
<g>
</g>
<g>
</g>
<g>
</g>
<g>
</g>
<g>
</g>
<g>
</g>
<g>
</g>
</svg>
