<?xml version="1.0" encoding="iso-8859-1"?>
<!-- Generator: Adobe Illustrator 19.0.0, SVG Export Plug-In . SVG Version: 6.00 Build 0)  -->
<svg version="1.1" id="Layer_1" xmlns="http://www.w3.org/2000/svg" xmlns:xlink="http://www.w3.org/1999/xlink" x="0px" y="0px"
	 viewBox="0 0 512 512" style="enable-background:new 0 0 512 512;" xml:space="preserve">
<g>
	<g>
		<path d="M256,0C114.843,0,0,114.843,0,256c0,141.157,114.843,256,256,256s256-114.843,256-256C512,114.843,397.157,0,256,0z
			 M256,493.037C125.296,493.037,18.963,386.704,18.963,256C18.963,125.296,125.296,18.963,256,18.963S493.037,125.296,493.037,256
			C493.037,386.704,386.704,493.037,256,493.037z"/>
	</g>
</g>
<g>
	<g>
		<rect x="142.222" y="331.804" width="237.037" height="18.963"/>
	</g>
</g>
<g>
	<g>
		<polygon points="193.556,180.148 180.148,166.741 161.185,185.704 142.222,166.741 128.815,180.148 147.778,199.111 
			128.815,218.074 142.222,231.482 161.185,212.519 180.148,231.482 193.556,218.074 174.593,199.111 		"/>
	</g>
</g>
<g>
	<g>
		<polygon points="392.667,180.148 379.259,166.741 360.296,185.704 341.333,166.741 327.926,180.148 346.889,199.111 
			327.926,218.074 341.333,231.482 360.296,212.519 379.259,231.482 392.667,218.074 373.704,199.111 		"/>
	</g>
</g>
<g>
</g>
<g>
</g>
<g>
</g>
<g>
</g>
<g>
</g>
<g>
</g>
<g>
</g>
<g>
</g>
<g>
</g>
<g>
</g>
<g>
</g>
<g>
</g>
<g>
</g>
<g>
</g>
<g>
</g>
</svg>
