<?xml version="1.0" encoding="iso-8859-1"?>
<!-- Generator: Adobe Illustrator 16.0.0, SVG Export Plug-In . SVG Version: 6.00 Build 0)  -->
<!DOCTYPE svg PUBLIC "-//W3C//DTD SVG 1.1//EN" "http://www.w3.org/Graphics/SVG/1.1/DTD/svg11.dtd">
<svg version="1.1" id="Capa_1" xmlns="http://www.w3.org/2000/svg" xmlns:xlink="http://www.w3.org/1999/xlink" x="0px" y="0px"
	 width="44.933px" height="44.934px" viewBox="0 0 44.933 44.934" style="enable-background:new 0 0 44.933 44.934;"
	 xml:space="preserve">
<g>
	<g>
		<path d="M43.359,1.305C42.56,0.467,41.436,0,40.279,0H4.758C2.409,0,0.4,1.884,0.4,4.232v17.813c0,2.348,2.01,4.167,4.358,4.167
			h1.751v2.167h-1.74c-0.756,0-1.482,0.316-1.946,0.917c-0.461,0.599-0.62,1.372-0.427,2.103l3.119,11.754
			c0.283,1.07,1.254,1.781,2.362,1.781h0.011c1.104,0,2.077-0.724,2.367-1.785l1.677-6.098h1.873c1.354,0,2.36-1.07,2.36-2.424
			v-8.248l22.954,1.15c0.071,0.004,0.168,0.006,0.238,0.006c1.061,0,2.088-0.394,2.873-1.104c0.832-0.755,1.346-1.832,1.398-2.954
			l0.9-19.038C44.585,3.28,44.16,2.143,43.359,1.305z M40.732,23.34c-0.017,0.357-0.177,0.699-0.441,0.938
			c-0.25,0.227-0.555,0.336-0.978,0.35l-23.38-1.174l-0.123-0.004c-0.631,0-1.207,0.24-1.667,0.678
			c-0.484,0.461-0.736,1.109-0.736,1.777v8.19h-1.818c-1.101,0-2.074,0.782-2.367,1.847l-1.324,4.854L5.395,31.34
			c0.006,0,0.012,0.005,0.018,0.005l6.278-0.303c0.313-0.015,0.581-0.25,0.621-0.573c0.047-0.361-0.208-0.689-0.568-0.736
			L9.34,29.419l0.127-3.565c0-1.354-1.163-2.4-2.517-2.4H4.758c-0.746,0-1.401-0.661-1.401-1.407V4.232
			c0-0.747,0.655-1.276,1.401-1.276h35.521c0.368,0,0.727,0.114,0.979,0.381s0.39,0.61,0.373,0.978L40.732,23.34z"/>
		<path d="M19.39,4.927H6.798c-0.534,0-0.968,0.45-0.968,0.985c0,0.536,0.434,0.986,0.968,0.986H19.39
			c0.535,0,0.969-0.45,0.969-0.986C20.358,5.377,19.925,4.927,19.39,4.927z"/>
		<path d="M31.492,4.927h-8.415c-0.536,0-0.969,0.45-0.969,0.985c0,0.536,0.433,0.986,0.969,0.986h8.415
			c0.535,0,0.969-0.45,0.969-0.986C32.46,5.377,32.027,4.927,31.492,4.927z"/>
	</g>
</g>
<g>
</g>
<g>
</g>
<g>
</g>
<g>
</g>
<g>
</g>
<g>
</g>
<g>
</g>
<g>
</g>
<g>
</g>
<g>
</g>
<g>
</g>
<g>
</g>
<g>
</g>
<g>
</g>
<g>
</g>
</svg>
